<svg width="109" height="14" viewBox="0 0 109 14" fill="none" xmlns="http://www.w3.org/2000/svg">
<path d="M0.147727 13V1.36364H4.60227C5.44318 1.36364 6.14205 1.49621 6.69886 1.76136C7.25947 2.02273 7.67803 2.38068 7.95455 2.83523C8.23485 3.28977 8.375 3.80492 8.375 4.38068C8.375 4.85417 8.28409 5.25947 8.10227 5.59659C7.92045 5.92992 7.67614 6.20076 7.36932 6.40909C7.0625 6.61742 6.7197 6.76705 6.34091 6.85795V6.97159C6.75379 6.99432 7.14962 7.12121 7.52841 7.35227C7.91098 7.57955 8.22348 7.90151 8.46591 8.31818C8.70833 8.73485 8.82955 9.23864 8.82955 9.82955C8.82955 10.4318 8.68371 10.9735 8.39205 11.4545C8.10038 11.9318 7.66099 12.3087 7.07386 12.5852C6.48674 12.8617 5.74811 13 4.85795 13H0.147727ZM2.25568 11.2386H4.52273C5.28788 11.2386 5.83902 11.0928 6.17614 10.8011C6.51705 10.5057 6.6875 10.1269 6.6875 9.66477C6.6875 9.32008 6.60227 9.00947 6.43182 8.73295C6.26136 8.45265 6.01894 8.23295 5.70455 8.07386C5.39015 7.91098 5.01515 7.82955 4.57955 7.82955H2.25568V11.2386ZM2.25568 6.3125H4.34091C4.70455 6.3125 5.0322 6.24621 5.32386 6.11364C5.61553 5.97727 5.8447 5.78598 6.01136 5.53977C6.18182 5.28977 6.26705 4.99432 6.26705 4.65341C6.26705 4.20265 6.10795 3.83144 5.78977 3.53977C5.47538 3.24811 5.00758 3.10227 4.38636 3.10227H2.25568V6.3125ZM13.2838 13.1761C12.7308 13.1761 12.2327 13.0777 11.7895 12.8807C11.3501 12.6799 11.0016 12.3845 10.744 11.9943C10.4902 11.6042 10.3634 11.1231 10.3634 10.5511C10.3634 10.0587 10.4543 9.65152 10.6361 9.32955C10.8179 9.00758 11.066 8.75 11.3804 8.55682C11.6948 8.36364 12.049 8.2178 12.4429 8.11932C12.8406 8.01705 13.2516 7.94318 13.6759 7.89773C14.1872 7.8447 14.602 7.79735 14.9202 7.75568C15.2384 7.71023 15.4694 7.64205 15.6134 7.55114C15.7611 7.45644 15.8349 7.31061 15.8349 7.11364V7.07955C15.8349 6.65152 15.708 6.32008 15.4543 6.08523C15.2005 5.85038 14.8349 5.73295 14.3577 5.73295C13.8539 5.73295 13.4543 5.8428 13.1588 6.0625C12.8671 6.2822 12.6702 6.54167 12.5679 6.84091L10.6474 6.56818C10.799 6.03788 11.049 5.5947 11.3974 5.23864C11.7459 4.87879 12.1721 4.60985 12.6759 4.43182C13.1796 4.25 13.7365 4.15909 14.3463 4.15909C14.7668 4.15909 15.1853 4.20833 15.602 4.30682C16.0187 4.4053 16.3993 4.56818 16.744 4.79545C17.0887 5.01894 17.3652 5.32386 17.5736 5.71023C17.7857 6.09659 17.8918 6.57955 17.8918 7.15909V13H15.9145V11.8011H15.8463C15.7213 12.0436 15.5452 12.2708 15.3179 12.483C15.0944 12.6913 14.8122 12.8598 14.4713 12.9886C14.1342 13.1136 13.7384 13.1761 13.2838 13.1761ZM13.8179 11.6648C14.2308 11.6648 14.5887 11.5833 14.8918 11.4205C15.1948 11.2538 15.4277 11.0341 15.5906 10.7614C15.7573 10.4886 15.8406 10.1913 15.8406 9.86932V8.84091C15.7762 8.89394 15.6664 8.94318 15.5111 8.98864C15.3596 9.03409 15.1891 9.07386 14.9997 9.10795C14.8103 9.14205 14.6228 9.17235 14.4372 9.19886C14.2516 9.22538 14.0906 9.24811 13.9543 9.26705C13.6474 9.30871 13.3728 9.37689 13.1304 9.47159C12.888 9.56629 12.6967 9.69886 12.5565 9.86932C12.4164 10.036 12.3463 10.2519 12.3463 10.517C12.3463 10.8958 12.4846 11.1818 12.7611 11.375C13.0376 11.5682 13.3899 11.6648 13.8179 11.6648ZM22.2168 7.88636V13H20.1599V4.27273H22.1259V5.75568H22.2281C22.4289 5.26705 22.749 4.87879 23.1884 4.59091C23.6315 4.30303 24.1789 4.15909 24.8304 4.15909C25.4327 4.15909 25.9573 4.28788 26.4043 4.54545C26.855 4.80303 27.2035 5.17614 27.4497 5.66477C27.6997 6.15341 27.8228 6.74621 27.819 7.44318V13H25.7622V7.76136C25.7622 7.17803 25.6107 6.72159 25.3077 6.39205C25.0084 6.0625 24.5937 5.89773 24.0634 5.89773C23.7035 5.89773 23.3834 5.97727 23.1031 6.13636C22.8266 6.29167 22.6088 6.51705 22.4497 6.8125C22.2944 7.10795 22.2168 7.46591 22.2168 7.88636ZM31.9849 10.2614L31.9793 7.77841H32.3088L35.4452 4.27273H37.8486L33.9906 8.56818H33.5645L31.9849 10.2614ZM30.1099 13V1.36364H32.1668V13H30.1099ZM35.5872 13L32.7463 9.02841L34.1327 7.57955L38.0474 13H35.5872ZM43.1676 3.13068V1.36364H52.4517V3.13068H48.8551V13H46.7642V3.13068H43.1676ZM53.4443 13V4.27273H55.4386V5.72727H55.5295C55.6886 5.22348 55.9614 4.83523 56.3477 4.5625C56.7379 4.28598 57.183 4.14773 57.683 4.14773C57.7966 4.14773 57.9235 4.15341 58.0636 4.16477C58.2076 4.17235 58.3269 4.18561 58.4216 4.20455V6.09659C58.3345 6.06629 58.1962 6.03977 58.0068 6.01705C57.8212 5.99053 57.6413 5.97727 57.467 5.97727C57.092 5.97727 56.7549 6.05871 56.4557 6.22159C56.1602 6.38068 55.9273 6.60227 55.7568 6.88636C55.5864 7.17045 55.5011 7.49811 55.5011 7.86932V13H53.4443ZM62.3432 13.1761C61.7902 13.1761 61.292 13.0777 60.8489 12.8807C60.4095 12.6799 60.061 12.3845 59.8034 11.9943C59.5496 11.6042 59.4227 11.1231 59.4227 10.5511C59.4227 10.0587 59.5136 9.65152 59.6955 9.32955C59.8773 9.00758 60.1254 8.75 60.4398 8.55682C60.7542 8.36364 61.1083 8.2178 61.5023 8.11932C61.9 8.01705 62.311 7.94318 62.7352 7.89773C63.2466 7.8447 63.6614 7.79735 63.9795 7.75568C64.2977 7.71023 64.5288 7.64205 64.6727 7.55114C64.8205 7.45644 64.8943 7.31061 64.8943 7.11364V7.07955C64.8943 6.65152 64.7674 6.32008 64.5136 6.08523C64.2599 5.85038 63.8943 5.73295 63.417 5.73295C62.9133 5.73295 62.5136 5.8428 62.2182 6.0625C61.9265 6.2822 61.7295 6.54167 61.6273 6.84091L59.7068 6.56818C59.8583 6.03788 60.1083 5.5947 60.4568 5.23864C60.8053 4.87879 61.2314 4.60985 61.7352 4.43182C62.239 4.25 62.7958 4.15909 63.4057 4.15909C63.8261 4.15909 64.2447 4.20833 64.6614 4.30682C65.078 4.4053 65.4587 4.56818 65.8034 4.79545C66.1481 5.01894 66.4246 5.32386 66.633 5.71023C66.8451 6.09659 66.9511 6.57955 66.9511 7.15909V13H64.9739V11.8011H64.9057C64.7807 12.0436 64.6045 12.2708 64.3773 12.483C64.1538 12.6913 63.8716 12.8598 63.5307 12.9886C63.1936 13.1136 62.7977 13.1761 62.3432 13.1761ZM62.8773 11.6648C63.2902 11.6648 63.6481 11.5833 63.9511 11.4205C64.2542 11.2538 64.4871 11.0341 64.65 10.7614C64.8167 10.4886 64.9 10.1913 64.9 9.86932V8.84091C64.8356 8.89394 64.7258 8.94318 64.5705 8.98864C64.4189 9.03409 64.2485 9.07386 64.0591 9.10795C63.8697 9.14205 63.6822 9.17235 63.4966 9.19886C63.311 9.22538 63.15 9.24811 63.0136 9.26705C62.7068 9.30871 62.4322 9.37689 62.1898 9.47159C61.9474 9.56629 61.7561 9.69886 61.6159 9.86932C61.4758 10.036 61.4057 10.2519 61.4057 10.517C61.4057 10.8958 61.5439 11.1818 61.8205 11.375C62.097 11.5682 62.4492 11.6648 62.8773 11.6648ZM71.2761 7.88636V13H69.2193V4.27273H71.1852V5.75568H71.2875C71.4883 5.26705 71.8083 4.87879 72.2477 4.59091C72.6909 4.30303 73.2383 4.15909 73.8898 4.15909C74.492 4.15909 75.0167 4.28788 75.4636 4.54545C75.9144 4.80303 76.2629 5.17614 76.5091 5.66477C76.7591 6.15341 76.8822 6.74621 76.8784 7.44318V13H74.8216V7.76136C74.8216 7.17803 74.6701 6.72159 74.367 6.39205C74.0678 6.0625 73.653 5.89773 73.1227 5.89773C72.7629 5.89773 72.4428 5.97727 72.1625 6.13636C71.886 6.29167 71.6682 6.51705 71.5091 6.8125C71.3538 7.10795 71.2761 7.46591 71.2761 7.88636ZM86.067 6.57955L84.192 6.78409C84.139 6.5947 84.0462 6.41667 83.9136 6.25C83.7849 6.08333 83.6106 5.94886 83.3909 5.84659C83.1712 5.74432 82.9023 5.69318 82.5841 5.69318C82.1561 5.69318 81.7962 5.78598 81.5045 5.97159C81.2167 6.1572 81.0746 6.39773 81.0784 6.69318C81.0746 6.94697 81.1674 7.15341 81.3568 7.3125C81.55 7.47159 81.8682 7.60227 82.3114 7.70455L83.8 8.02273C84.6258 8.20076 85.2394 8.48295 85.6409 8.86932C86.0462 9.25568 86.2508 9.76136 86.2545 10.3864C86.2508 10.9356 86.0898 11.4205 85.7716 11.8409C85.4572 12.2576 85.0197 12.5833 84.4591 12.8182C83.8985 13.053 83.2545 13.1705 82.5273 13.1705C81.4591 13.1705 80.5992 12.947 79.9477 12.5C79.2962 12.0492 78.908 11.4223 78.783 10.6193L80.7886 10.4261C80.8795 10.8201 81.0727 11.1174 81.3682 11.3182C81.6636 11.5189 82.0481 11.6193 82.5216 11.6193C83.0102 11.6193 83.4023 11.5189 83.6977 11.3182C83.997 11.1174 84.1466 10.8693 84.1466 10.5739C84.1466 10.3239 84.05 10.1174 83.8568 9.95455C83.6674 9.79167 83.372 9.66667 82.9705 9.57955L81.4818 9.26705C80.6447 9.0928 80.0254 8.79924 79.6239 8.38636C79.2224 7.9697 79.0235 7.44318 79.0273 6.80682C79.0235 6.26894 79.1693 5.80303 79.4648 5.40909C79.764 5.01136 80.1788 4.70455 80.7091 4.48864C81.2432 4.26894 81.8587 4.15909 82.5557 4.15909C83.5784 4.15909 84.3833 4.37689 84.9705 4.8125C85.5614 5.24811 85.9269 5.83712 86.067 6.57955ZM92.571 4.27273V5.86364H87.4119V4.27273H92.571ZM88.7017 13V3.44886C88.7017 2.86174 88.8229 2.37311 89.0653 1.98295C89.3116 1.5928 89.6411 1.30114 90.054 1.10795C90.4669 0.914772 90.9252 0.818181 91.429 0.818181C91.785 0.818181 92.1013 0.84659 92.3778 0.903409C92.6544 0.960227 92.8589 1.01136 92.9915 1.05682L92.5824 2.64773C92.4953 2.62121 92.3854 2.5947 92.2528 2.56818C92.1203 2.53788 91.9725 2.52273 91.8097 2.52273C91.4271 2.52273 91.1563 2.61553 90.9972 2.80114C90.8419 2.98295 90.7642 3.24432 90.7642 3.58523V13H88.7017ZM97.9173 13.1705C97.0423 13.1705 96.2866 12.9886 95.6503 12.625C95.0177 12.2576 94.531 11.7386 94.1901 11.0682C93.8491 10.3939 93.6787 9.60038 93.6787 8.6875C93.6787 7.78977 93.8491 7.00189 94.1901 6.32386C94.5348 5.64205 95.0158 5.11174 95.6332 4.73295C96.2507 4.35038 96.976 4.15909 97.8094 4.15909C98.3473 4.15909 98.8548 4.24621 99.3321 4.42045C99.8132 4.59091 100.237 4.85606 100.605 5.21591C100.976 5.57576 101.268 6.03409 101.48 6.59091C101.692 7.14394 101.798 7.80303 101.798 8.56818V9.19886H94.6446V7.8125H99.8264C99.8226 7.41856 99.7374 7.06818 99.5707 6.76136C99.4041 6.45076 99.1711 6.20644 98.8719 6.02841C98.5764 5.85038 98.2317 5.76136 97.8378 5.76136C97.4173 5.76136 97.048 5.86364 96.7298 6.06818C96.4116 6.26894 96.1635 6.53409 95.9855 6.86364C95.8113 7.18939 95.7223 7.54735 95.7185 7.9375V9.14773C95.7185 9.6553 95.8113 10.0909 95.9969 10.4545C96.1825 10.8144 96.4419 11.0909 96.7753 11.2841C97.1086 11.4735 97.4988 11.5682 97.9457 11.5682C98.245 11.5682 98.5158 11.5265 98.7582 11.4432C99.0007 11.3561 99.2109 11.2292 99.3889 11.0625C99.5669 10.8958 99.7014 10.6894 99.7923 10.4432L101.713 10.6591C101.592 11.1667 101.361 11.6098 101.02 11.9886C100.682 12.3636 100.251 12.6553 99.7241 12.8636C99.1976 13.0682 98.5954 13.1705 97.9173 13.1705ZM103.738 13V4.27273H105.732V5.72727H105.823C105.982 5.22348 106.255 4.83523 106.641 4.5625C107.032 4.28598 107.477 4.14773 107.977 4.14773C108.09 4.14773 108.217 4.15341 108.357 4.16477C108.501 4.17235 108.621 4.18561 108.715 4.20455V6.09659C108.628 6.06629 108.49 6.03977 108.301 6.01705C108.115 5.99053 107.935 5.97727 107.761 5.97727C107.386 5.97727 107.049 6.05871 106.749 6.22159C106.454 6.38068 106.221 6.60227 106.051 6.88636C105.88 7.17045 105.795 7.49811 105.795 7.86932V13H103.738Z" fill="#38427D"/>
</svg>
