<svg id="Layer_1" data-name="Layer 1" xmlns="http://www.w3.org/2000/svg" viewBox="0 0 64.88 62.82"><path d="M29.43,27.6V16.86a2.79,2.79,0,0,0-2.79-2.79H6A6,6,0,0,0,0,20V48.53a2.59,2.59,0,0,0,2.59,2.59H22a2.59,2.59,0,0,0,2.59-2.59V43.07H31.1a2.44,2.44,0,0,0,2.44-2.44v-13ZM23.86,48.53A1.82,1.82,0,0,1,22,50.35H2.59A1.82,1.82,0,0,1,.76,48.53V20A5.2,5.2,0,0,1,6,14.83H24.73a2.78,2.78,0,0,0-.87,2V48.53Zm.76-6.22V16.86a2,2,0,1,1,4.05,0V40.63a2.42,2.42,0,0,0,.67,1.68H24.62Zm8.16-1.68a1.68,1.68,0,1,1-3.35,0V28.36h3.35Z" style="fill:#0075ff"/><path d="M21,20.81h-8a.38.38,0,1,0,0,.76h8a.38.38,0,0,0,0-.76Z" style="fill:#0075ff"/><path d="M21,30.46H3.48a.38.38,0,0,0,0,.76H21a.38.38,0,0,0,0-.76Z" style="fill:#0075ff"/><path d="M21,35H3.48a.39.39,0,0,0,0,.77H21A.39.39,0,0,0,21,35Z" style="fill:#0075ff"/><path d="M21,40.38H8a.38.38,0,1,0,0,.76H21a.38.38,0,1,0,0-.76Z" style="fill:#0075ff"/><path d="M17.52,45.63H4.37A.38.38,0,0,0,4,46a.39.39,0,0,0,.38.39H17.52A.39.39,0,0,0,17.9,46,.38.38,0,0,0,17.52,45.63Z" style="fill:#0075ff"/><path d="M54.52,23.05a4.84,4.84,0,0,1,0,.72,1.63,1.63,0,0,1-.11.46.57.57,0,0,1-.18.26.41.41,0,0,1-.24.08H44.39a1.2,1.2,0,0,1-.81-.29,1.14,1.14,0,0,1-.34-.93V6.76a1.14,1.14,0,0,1,.34-.93,1.2,1.2,0,0,1,.81-.29h9.5a.36.36,0,0,1,.23.08.56.56,0,0,1,.18.25,1.81,1.81,0,0,1,.11.47,5.07,5.07,0,0,1,0,.73,4.64,4.64,0,0,1,0,.7,1.55,1.55,0,0,1-.11.46.6.6,0,0,1-.18.26.36.36,0,0,1-.23.08H47.1v4.65h5.74a.46.46,0,0,1,.25.08.62.62,0,0,1,.18.25,1.48,1.48,0,0,1,.11.45,4.81,4.81,0,0,1,0,.7,4.69,4.69,0,0,1,0,.71,1.65,1.65,0,0,1-.11.45.58.58,0,0,1-.18.24.45.45,0,0,1-.25.07H47.1v5.37H54a.41.41,0,0,1,.24.08.52.52,0,0,1,.18.26,1.63,1.63,0,0,1,.11.46A4.78,4.78,0,0,1,54.52,23.05Z" style="fill:#0075ff"/><path d="M44,30.45a2.35,2.35,0,0,1-.52,1.75,2.84,2.84,0,0,1-1.91.48,2.85,2.85,0,0,1-1.91-.47,2.26,2.26,0,0,1-.49-1.68,2.47,2.47,0,0,1,.5-1.76,2.82,2.82,0,0,1,1.93-.49,2.85,2.85,0,0,1,1.9.47A2.32,2.32,0,0,1,44,30.45Zm-.32,19.89a.43.43,0,0,1-.1.29.62.62,0,0,1-.34.21,2.35,2.35,0,0,1-.64.12,9.35,9.35,0,0,1-1,0,9,9,0,0,1-1,0,2.52,2.52,0,0,1-.65-.12.66.66,0,0,1-.34-.21.48.48,0,0,1-.1-.29V35.51a.48.48,0,0,1,.1-.29.83.83,0,0,1,.34-.22,2.9,2.9,0,0,1,.65-.14,9,9,0,0,1,1,0,9.35,9.35,0,0,1,1,0,2.68,2.68,0,0,1,.64.14.77.77,0,0,1,.34.22.43.43,0,0,1,.1.29Z" style="fill:#0075ff"/><path d="M63.72,44.44a6.44,6.44,0,0,1-.32,2.08,5.4,5.4,0,0,1-.87,1.65,5.87,5.87,0,0,1-1.34,1.24,7.58,7.58,0,0,1-1.71.85,10.93,10.93,0,0,1-2,.49,16.7,16.7,0,0,1-2.35.16H49.4a1.35,1.35,0,0,1-.92-.33,1.33,1.33,0,0,1-.38-1.06V30.73a1.22,1.22,0,0,1,1.3-1.38h5.42a14.67,14.67,0,0,1,3.36.33,6.61,6.61,0,0,1,2.31,1,4.41,4.41,0,0,1,1.44,1.71,5.38,5.38,0,0,1,.5,2.43,5,5,0,0,1-.2,1.47,4.26,4.26,0,0,1-.58,1.26,4.45,4.45,0,0,1-.94,1,4.78,4.78,0,0,1-1.28.7,5.82,5.82,0,0,1,1.69.58,4.73,4.73,0,0,1,1.35,1.08,4.83,4.83,0,0,1,.91,1.54A5.41,5.41,0,0,1,63.72,44.44Zm-5.67-9.08a3.24,3.24,0,0,0-.2-1.16,2,2,0,0,0-.6-.86,2.62,2.62,0,0,0-1-.53,5.84,5.84,0,0,0-1.62-.18H52.4v5.6h2.45A4.19,4.19,0,0,0,56.37,38a2.6,2.6,0,0,0,.94-.61,2.56,2.56,0,0,0,.56-.92A3.4,3.4,0,0,0,58.05,35.36Zm1.12,9.23a3.55,3.55,0,0,0-.25-1.34,2.58,2.58,0,0,0-.74-1A3.39,3.39,0,0,0,57,41.64a7.43,7.43,0,0,0-2-.21H52.4v6.13h3.17a5.62,5.62,0,0,0,1.54-.19,3.09,3.09,0,0,0,1.08-.57,2.54,2.54,0,0,0,.72-.93A3,3,0,0,0,59.17,44.59Z" style="fill:#0075ff"/></svg>