<svg width="12" height="13" viewBox="0 0 12 13" fill="none" xmlns="http://www.w3.org/2000/svg">
<path d="M10.0468 4.27477L4.34018 1.42144C0.506843 -0.498561 -1.06649 1.07477 0.853509 4.9081L1.43351 6.06811C1.60018 6.40811 1.60018 6.80144 1.43351 7.14144L0.853509 8.29477C-1.06649 12.1281 0.500176 13.7014 4.34018 11.7814L10.0468 8.92811C12.6068 7.64811 12.6068 5.55477 10.0468 4.27477ZM7.89351 7.10144H4.29351C4.02018 7.10144 3.79351 6.87477 3.79351 6.60144C3.79351 6.32811 4.02018 6.10144 4.29351 6.10144H7.89351C8.16684 6.10144 8.39351 6.32811 8.39351 6.60144C8.39351 6.87477 8.16684 7.10144 7.89351 7.10144Z" fill="#AEB8D6"/>
</svg>
