<svg width="288" height="59" viewBox="0 0 288 59" fill="none" xmlns="http://www.w3.org/2000/svg">
<rect width="58.2785" height="58.2785" rx="29.1393" fill="#ADA3FF" fill-opacity="0.3"/>
<rect x="16.8359" y="13.5983" width="25.0382" height="31.0819" rx="6.90708" fill="url(#paint0_linear_98_4055)"/>
<rect x="21.1531" y="23.0956" width="8.63385" height="1.29508" rx="0.647539" fill="#D9D9D9"/>
<rect x="21.1531" y="28.2759" width="16.4043" height="0.863385" rx="0.431693" fill="#D9D9D9"/>
<rect x="21.1531" y="33.4562" width="16.4043" height="0.863385" rx="0.431693" fill="#D9D9D9"/>
<rect x="21.1531" y="30.866" width="16.4043" height="0.863385" rx="0.431693" fill="#D9D9D9"/>
<path d="M81.0179 19.7752H87.5703V24.5214H75.6875V3.16376H81.0179V3.20382H87.5703V7.94999H81.0179V19.7752Z" fill="#294997"/>
<path d="M82.2214 13.8606C82.2214 12.2678 83.4704 10.9767 85.0112 10.9767C86.5518 10.9767 87.8007 12.2678 87.8007 13.8606C87.8007 15.4534 86.5518 16.7444 85.0112 16.7444C83.4704 16.7444 82.2214 15.4534 82.2214 13.8606Z" fill="#D34CF5"/>
<path d="M101.305 10.0244H106.339V24.5591H101.305V23.3019C100.097 24.4183 98.5434 25.0901 96.8491 25.0901C92.998 25.0901 89.8762 21.6232 89.8762 17.3466C89.8762 13.07 92.998 9.60321 96.8491 9.60321C98.5434 9.60321 100.097 10.2753 101.305 11.391V10.0244ZM101.305 17.3466C101.305 15.5062 99.9997 14.0139 98.2376 14.0139C96.4756 14.0139 95.0473 15.5062 95.0473 17.3466C95.0473 19.1874 96.4756 20.6797 98.2376 20.6797C99.9997 20.6797 101.305 19.1871 101.305 17.3466Z" fill="#294997"/>
<path d="M120.814 19.632C120.814 23.6067 117.162 25.0888 114.102 25.0888C111.043 25.0888 108.464 23.4206 108.464 23.4206L110.279 19.8015C110.279 19.8015 112.277 21.272 114.24 21.272C115.059 21.272 115.808 20.7672 115.808 20.1694C115.808 17.9182 109.537 19.8693 109.537 14.7694C109.537 10.7227 113.174 9.51077 115.836 9.51077C117.333 9.51077 119.25 9.89346 120.374 10.4438L118.696 13.78C118.696 13.78 117.224 13.0445 116.001 13.0445C114.951 13.0445 114.46 13.5732 114.46 14.0909C114.46 15.8091 120.814 14.4942 120.814 19.632Z" fill="#294997"/>
<path d="M140.15 10.0346L133.819 22.2231L132.617 24.5397L129.211 31.0952H124.177L128.533 22.4752L121.82 10.0346H127.742L131.257 17.0825L134.82 10.0346H140.15Z" fill="#294997"/>
<path d="M75.7104 54.5082V33.1505H81.041V54.5082H75.7104Z" fill="#294997"/>
<path d="M99.1175 45.0637V54.5277H94.0834V46.9538C94.0834 44.6178 93.2753 43.7843 91.8288 43.7843C89.7345 43.7843 89.2714 45.4448 89.2714 46.6385V54.5274H84.2371V40.0239H89.2714V41.7926C89.2714 41.7926 90.4988 39.7133 93.7267 39.7133C96.6003 39.7133 99.1175 41.3547 99.1175 45.0637Z" fill="#294997"/>
<path d="M116.682 40.0213L110.907 54.5264L108.464 54.5261L106.022 54.5264L100.247 40.0213H104.986L108.464 48.7615L111.944 40.0213H116.682Z" fill="#294997"/>
<path d="M134.087 47.2866C134.087 51.5884 130.74 55.1147 125.615 55.1147C120.49 55.1147 117.143 51.5884 117.143 47.2866C117.143 42.9847 120.49 39.4976 125.615 39.4976C130.74 39.4976 134.087 42.9847 134.087 47.2866ZM128.832 47.306C128.832 45.4452 127.392 43.9366 125.615 43.9366C123.838 43.9366 122.398 45.4452 122.398 47.306C122.398 49.1671 123.838 50.6757 125.615 50.6757C127.392 50.6757 128.832 49.1671 128.832 47.306Z" fill="#294997"/>
<path d="M136.167 34.463C136.167 32.8705 137.416 31.5792 138.956 31.5792C140.497 31.5792 141.746 32.8705 141.746 34.463C141.746 36.0558 140.497 37.3471 138.956 37.3471C137.416 37.3471 136.167 36.0558 136.167 34.463Z" fill="#D34CF5"/>
<path d="M136.425 54.536V40.0325H141.459V54.536H136.425Z" fill="#294997"/>
<path d="M159.332 49.5098C159.332 50.9814 158.307 55.1067 151.88 55.1067C145.716 55.1067 143.848 50.4961 143.848 47.3882C143.848 45.0224 145.001 39.5284 151.687 39.5284C156.766 39.5284 158.689 42.8161 159.089 45.125H154.608C154.608 44.0175 153.759 42.8451 151.59 42.8451C150.306 42.8451 148.924 44.1128 148.924 46.8737C148.924 48.6023 149.443 51.4877 151.907 51.4877C153.421 51.4877 154.411 50.7315 154.506 49.5098H159.332V49.5098Z" fill="#294997"/>
<path d="M171.682 49.2657H176.494C176.494 54.341 171.117 55.0707 168.892 55.0707C166.668 55.0707 161 53.6794 161 47.3584C161 41.0373 165.896 39.4976 168.839 39.4976C173.388 39.4976 175.517 41.8471 176.225 45.1811C176.423 46.1067 176.512 47.1063 176.512 48.1502H166.032C166.032 50.5263 167.273 51.4578 169.058 51.4578C170.844 51.4578 171.682 50.4523 171.682 49.2657ZM166.153 45.1811H171.794L171.762 45.1604C171.762 44.0924 170.956 42.8051 168.975 42.8051C166.997 42.8051 166.153 44.2231 166.153 45.1811Z" fill="#294997"/>
<path d="M204.05 48.3166C204.05 50.7136 202.707 54.5082 196.899 54.5082H188.234V33.1505H196.142C197.95 33.1505 202.097 33.5946 202.097 38.6757C202.097 40.7652 201.161 42.4204 199.814 43.1427C201.346 43.3242 204.05 44.4775 204.05 48.3166ZM198.604 47.949C198.604 46.208 197.051 45.6873 194.808 45.6873H193.564V50.2107H195.226C197.027 50.2107 198.604 49.6899 198.604 47.949ZM193.565 41.5592H194.616C195.3 41.5592 197.146 41.3981 197.146 39.4956C197.146 37.5929 195.262 37.4317 194.616 37.4317H193.565V41.5592Z" fill="#294997"/>
<path d="M221.147 40.0213V49.3846C221.147 54.7668 215.623 55.0623 213.637 55.0623C211.652 55.0623 206.128 54.7668 206.128 49.3846V40.0213H211.163V48.5064C211.163 49.2487 211.446 50.8778 213.637 50.8778C215.829 50.8778 216.112 49.2487 216.112 48.5064V40.0213H221.147Z" fill="#294997"/>
<path d="M223.699 34.463C223.699 32.8705 224.948 31.5792 226.488 31.5792C228.029 31.5792 229.278 32.8705 229.278 34.463C229.278 36.0558 228.029 37.3471 226.488 37.3471C224.948 37.3471 223.699 36.0558 223.699 34.463Z" fill="#D34CF5"/>
<path d="M223.957 54.536V40.0325H228.991V54.536H223.957Z" fill="#294997"/>
<path d="M232.026 54.5429V31.7025H237.06V54.5429H232.026Z" fill="#294997"/>
<path d="M250.858 31.7025H255.893V54.5429H250.858V53.2857C249.65 54.4021 248.097 55.0738 246.403 55.0738C242.552 55.0738 239.43 51.607 239.43 47.3304C239.43 43.0538 242.552 39.587 246.403 39.587C248.097 39.587 249.65 40.2591 250.858 41.3748V31.7025ZM250.858 47.3304C250.858 45.4899 249.553 43.9976 247.791 43.9976C246.029 43.9976 244.601 45.4899 244.601 47.3304C244.601 49.1712 246.029 50.6635 247.791 50.6635C249.553 50.6635 250.858 49.1709 250.858 47.3304Z" fill="#294997"/>
<path d="M269.006 49.2657H273.819C273.819 54.341 268.441 55.0707 266.217 55.0707C263.993 55.0707 258.325 53.6794 258.325 47.3584C258.325 41.0373 263.22 39.4976 266.164 39.4976C270.712 39.4976 272.842 41.8471 273.549 45.1811C273.748 46.1067 273.837 47.1063 273.837 48.1502H263.356C263.356 50.5263 264.597 51.4578 266.383 51.4578C268.168 51.4578 269.006 50.4523 269.006 49.2657ZM263.477 45.1811H269.119L269.086 45.1604C269.086 44.0924 268.281 42.8051 266.3 42.8051C264.322 42.8051 263.478 44.2231 263.477 45.1811Z" fill="#294997"/>
<path d="M276.362 54.5318V40.028H281.396V54.5318H276.362Z" fill="#294997"/>
<path d="M282.421 42.9051C282.421 41.3127 283.67 40.0213 285.211 40.0213C286.751 40.0213 288 41.3127 288 42.9051C288 44.4979 286.751 45.789 285.211 45.789C283.67 45.789 282.421 44.4979 282.421 42.9051Z" fill="#D34CF5"/>
<defs>
<linearGradient id="paint0_linear_98_4055" x1="19.8959" y1="14.922" x2="38.1339" y2="43.937" gradientUnits="userSpaceOnUse">
<stop offset="0.413697" stop-color="#7864FF"/>
<stop offset="1" stop-color="#D34CF5"/>
</linearGradient>
</defs>
</svg>
