<svg width="14" height="14" viewBox="0 0 14 14" fill="none" xmlns="http://www.w3.org/2000/svg">
<path d="M10.7468 6.27012C10.6107 6.27012 10.4801 6.21604 10.3838 6.11977C10.2876 6.0235 10.2335 5.89293 10.2335 5.75679C10.2335 5.51012 9.98683 4.99679 9.57349 4.55012C9.16683 4.11679 8.72016 3.86346 8.34683 3.86346C8.21068 3.86346 8.08012 3.80937 7.98385 3.7131C7.88758 3.61683 7.8335 3.48627 7.8335 3.35012C7.8335 3.07012 8.06683 2.83679 8.34683 2.83679C9.0135 2.83679 9.7135 3.19679 10.3268 3.84346C10.9002 4.45012 11.2668 5.20345 11.2668 5.75012C11.2668 6.03679 11.0335 6.27012 10.7468 6.27012ZM13.1535 6.26879C13.0174 6.26879 12.8868 6.2147 12.7905 6.11844C12.6942 6.02217 12.6402 5.8916 12.6402 5.75545C12.6402 3.38879 10.7135 1.46879 8.3535 1.46879C8.21735 1.46879 8.08678 1.41471 7.99051 1.31844C7.89425 1.22217 7.84016 1.0916 7.84016 0.955455C7.84016 0.675455 8.06683 0.435455 8.34683 0.435455C11.2802 0.435455 13.6668 2.82212 13.6668 5.75545C13.6668 6.03545 13.4335 6.26879 13.1535 6.26879ZM6.36683 9.06879L5.1335 10.3021C4.8735 10.5621 4.46016 10.5621 4.1935 10.3088C4.12016 10.2355 4.04683 10.1688 3.9735 10.0955C3.29934 9.41679 2.67756 8.68804 2.1135 7.91545C1.56683 7.15546 1.12683 6.39546 0.806829 5.64212C0.493496 4.88212 0.333496 4.15546 0.333496 3.46212C0.333496 3.00879 0.413496 2.57546 0.573496 2.17546C0.733496 1.76879 0.986829 1.39546 1.34016 1.06212C1.76683 0.642122 2.2335 0.435455 2.72683 0.435455C2.9135 0.435455 3.10016 0.475455 3.26683 0.555455C3.44016 0.635455 3.5935 0.755455 3.7135 0.928789L5.26016 3.10879C5.38016 3.27546 5.46683 3.42879 5.52683 3.57546C5.58683 3.71546 5.62016 3.85546 5.62016 3.98212C5.62016 4.14212 5.5735 4.30212 5.48016 4.45545C5.3935 4.60879 5.26683 4.76879 5.10683 4.92879L4.60016 5.45545C4.52683 5.52879 4.4935 5.61546 4.4935 5.72212C4.4935 5.77545 4.50016 5.82212 4.5135 5.87545C4.5335 5.92879 4.5535 5.96879 4.56683 6.00879C4.68683 6.22879 4.8935 6.51546 5.18683 6.86212C5.48683 7.20879 5.80683 7.56212 6.1535 7.91545C6.22016 7.98212 6.2935 8.04879 6.36016 8.11546C6.62683 8.37546 6.6335 8.80212 6.36683 9.06879ZM13.6468 11.3221C13.6459 11.5737 13.589 11.822 13.4802 12.0488C13.3668 12.2888 13.2202 12.5155 13.0268 12.7288C12.7002 13.0888 12.3402 13.3488 11.9335 13.5155C11.9268 13.5155 11.9202 13.5221 11.9135 13.5221C11.5202 13.6821 11.0935 13.7688 10.6335 13.7688C9.9535 13.7688 9.22683 13.6088 8.46016 13.2821C7.6935 12.9555 6.92683 12.5155 6.16683 11.9621C5.90683 11.7688 5.64683 11.5755 5.40016 11.3688L7.58016 9.18879C7.76683 9.32879 7.9335 9.43545 8.0735 9.50879C8.10683 9.52212 8.14683 9.54212 8.1935 9.56212C8.24683 9.58212 8.30016 9.58879 8.36016 9.58879C8.4735 9.58879 8.56016 9.54879 8.6335 9.47546L9.14016 8.97546C9.30683 8.80879 9.46683 8.68212 9.62016 8.60212C9.7735 8.50879 9.92683 8.46212 10.0935 8.46212C10.2202 8.46212 10.3535 8.48879 10.5002 8.54879C10.6468 8.60879 10.8002 8.69546 10.9668 8.80879L13.1735 10.3755C13.3468 10.4955 13.4668 10.6355 13.5402 10.8021C13.6068 10.9688 13.6468 11.1355 13.6468 11.3221Z" fill="#AEB8D6"/>
</svg>
