<svg width="25" height="25" viewBox="0 0 25 25" fill="none" xmlns="http://www.w3.org/2000/svg">
<g clip-path="url(#clip0_258_8060)">
<path d="M12.3709 11.37C12.2709 11.36 12.1509 11.36 12.0409 11.37C10.8931 11.331 9.80555 10.8468 9.00854 10.0199C8.21153 9.19307 7.76765 8.08844 7.77091 6.93999C7.77091 4.48999 9.75091 2.49999 12.2109 2.49999C12.7933 2.48948 13.3721 2.5938 13.9142 2.80697C14.4563 3.02014 14.9511 3.338 15.3704 3.7424C15.7896 4.1468 16.1251 4.62982 16.3577 5.16388C16.5903 5.69794 16.7154 6.27258 16.7259 6.85499C16.7364 7.4374 16.6321 8.01618 16.4189 8.55828C16.2058 9.10038 15.8879 9.59518 15.4835 10.0144C15.0791 10.4337 14.5961 10.7692 14.062 11.0018C13.528 11.2344 12.9533 11.3595 12.3709 11.37V11.37ZM7.37091 15.06C4.95091 16.68 4.95091 19.32 7.37091 20.93C10.1209 22.77 14.6309 22.77 17.3809 20.93C19.8009 19.31 19.8009 16.67 17.3809 15.06C14.6409 13.23 10.1309 13.23 7.37091 15.06V15.06Z" stroke="white" stroke-width="1.5" stroke-linecap="round" stroke-linejoin="round"/>
</g>
<defs>
<clipPath id="clip0_258_8060">
<rect width="24" height="24" fill="white" transform="translate(0.210938 0.5)"/>
</clipPath>
</defs>
</svg>
