<svg width="25" height="24" viewBox="0 0 25 24" fill="none" xmlns="http://www.w3.org/2000/svg">
<path d="M16.6209 4.00001C18.5609 4.00001 20.1209 5.57001 20.1209 7.50001C20.1209 9.39001 18.6209 10.93 16.7509 11C16.6645 10.99 16.5773 10.99 16.4909 11M18.5509 20C19.2709 19.85 19.9509 19.56 20.5109 19.13C22.0709 17.96 22.0709 16.03 20.5109 14.86C19.9609 14.44 19.2909 14.16 18.5809 14M9.37091 10.87C9.27091 10.86 9.15091 10.86 9.04091 10.87C7.89311 10.831 6.80555 10.3468 6.00854 9.51996C5.21153 8.69309 4.76765 7.58846 4.77091 6.44001C4.77091 3.99001 6.75091 2.00001 9.21091 2.00001C10.3871 1.97879 11.5236 2.4257 12.3704 3.24242C13.2171 4.05914 13.7047 5.17877 13.7259 6.35501C13.7471 7.53124 13.3002 8.66773 12.4835 9.51446C11.6668 10.3612 10.5471 10.8488 9.37091 10.87ZM4.37091 14.56C1.95091 16.18 1.95091 18.82 4.37091 20.43C7.12091 22.27 11.6309 22.27 14.3809 20.43C16.8009 18.81 16.8009 16.17 14.3809 14.56C11.6409 12.73 7.13091 12.73 4.37091 14.56V14.56Z" stroke="white" stroke-width="1.5" stroke-linecap="round" stroke-linejoin="round"/>
</svg>
