<svg width="24" height="24" viewBox="0 0 24 24" fill="none" xmlns="http://www.w3.org/2000/svg">
<path d="M8.44446 14.5385C8.44446 15.4338 9.11112 16.1538 9.9289 16.1538H11.6C12.3111 16.1538 12.8889 15.5261 12.8889 14.7415C12.8889 13.9015 12.5333 13.5969 12.0089 13.4031L9.33335 12.4338C8.8089 12.24 8.45335 11.9446 8.45335 11.0954C8.45335 10.32 9.03112 9.68307 9.74224 9.68307H11.4133C12.2311 9.68307 12.8978 10.4031 12.8978 11.2985M10.6667 8.76923V17.0769" stroke="white" stroke-width="1.5" stroke-linecap="round" stroke-linejoin="round"/>
<path d="M19.5556 12.9231C19.5556 18.0185 15.5734 22.1538 10.6667 22.1538C5.76005 22.1538 1.77783 18.0185 1.77783 12.9231C1.77783 7.82769 5.76005 3.69231 10.6667 3.69231" stroke="white" stroke-width="1.5" stroke-linecap="round" stroke-linejoin="round"/>
<path d="M19.5834 3.7789L15.3056 8.2212M20.5556 6.00005C20.5556 6.60582 20.3923 7.17928 20.1045 7.6639C19.8303 8.14245 19.4408 8.5386 18.9744 8.81335C18.508 9.0881 17.9807 9.23198 17.4445 9.23082C16.9083 9.23198 16.381 9.0881 15.9146 8.81335C15.4482 8.5386 15.0587 8.14245 14.7845 7.6639C14.4884 7.16347 14.3322 6.58738 14.3334 6.00005C14.3334 4.21505 15.7256 2.76929 17.4445 2.76929C19.1634 2.76929 20.5556 4.21505 20.5556 6.00005Z" stroke="white" stroke-width="1.5" stroke-miterlimit="10" stroke-linecap="round" stroke-linejoin="round"/>
</svg>
