<svg width="27" height="26" viewBox="0 0 27 26" fill="none" xmlns="http://www.w3.org/2000/svg">
<path d="M25.25 2.00961L20.9722 6.45192M26.2222 4.23077C26.2222 4.83653 26.0589 5.40999 25.7711 5.89461C25.4969 6.37316 25.1074 6.76931 24.641 7.04406C24.1746 7.31881 23.6473 7.46269 23.1111 7.46153C22.5749 7.46269 22.0476 7.31881 21.5812 7.04406C21.1148 6.76931 20.7253 6.37316 20.4511 5.89461C20.155 5.39418 19.9989 4.8181 20 4.23077C20 2.44577 21.3922 1 23.1111 1C24.83 1 26.2222 2.44577 26.2222 4.23077Z" stroke="white" stroke-width="1.5" stroke-miterlimit="10" stroke-linecap="round" stroke-linejoin="round"/>
<path d="M21.3333 11.3333V15.5C21.3333 19.6667 19.6666 21.3333 15.5 21.3333H10.5C6.33329 21.3333 4.66663 19.6667 4.66663 15.5V10.5C4.66663 6.33332 6.33329 4.66666 10.5 4.66666H14.6666" stroke="white" stroke-width="1.25" stroke-linecap="round" stroke-linejoin="round"/>
<path d="M8.83337 13.8333H13.8334M8.83337 17.1667H12.1667M21.3334 11.3333H18C15.5 11.3333 14.6667 10.5 14.6667 7.99999V4.66666L21.3334 11.3333Z" stroke="white" stroke-width="1.25" stroke-linecap="round" stroke-linejoin="round"/>
</svg>
