<svg width="14" height="14" viewBox="0 0 14 14" fill="none" xmlns="http://www.w3.org/2000/svg">
<path d="M4.0995 13.0421C4.0795 13.0421 4.05283 13.0554 4.03283 13.0554C2.7395 12.4154 1.68616 11.3554 1.0395 10.0621C1.0395 10.0421 1.05283 10.0154 1.05283 9.99544C1.86616 10.2354 2.70616 10.4154 3.5395 10.5554C3.68616 11.3954 3.8595 12.2288 4.0995 13.0421ZM12.9602 10.0688C12.3002 11.3954 11.2002 12.4688 9.86016 13.1154C10.1135 12.2688 10.3268 11.4154 10.4668 10.5554C11.3068 10.4154 12.1335 10.2354 12.9468 9.99544C12.9402 10.0221 12.9602 10.0488 12.9602 10.0688ZM13.0135 4.24211C12.1735 3.98877 11.3268 3.78211 10.4668 3.63544C10.3268 2.77544 10.1202 1.92211 9.86016 1.08877C11.2402 1.74877 12.3535 2.86211 13.0135 4.24211ZM4.10016 1.16144C3.86016 1.97477 3.68683 2.80144 3.54683 3.64144C2.68683 3.77477 1.8335 3.98811 0.986829 4.24144C1.6335 2.90144 2.70683 1.80144 4.0335 1.14144C4.0535 1.14144 4.08016 1.16144 4.10016 1.16144ZM9.32816 3.49544C7.7815 3.32211 6.2215 3.32211 4.67483 3.49544C4.8415 2.58211 5.05483 1.66877 5.35483 0.788773C5.36816 0.73544 5.3615 0.69544 5.36816 0.642107C5.89483 0.51544 6.43483 0.43544 7.0015 0.43544C7.5615 0.43544 8.10816 0.51544 8.62816 0.642107C8.63483 0.69544 8.63483 0.73544 8.64816 0.788773C8.94816 1.67544 9.1615 2.58211 9.32816 3.49544ZM3.3935 9.43011C2.4735 9.26344 1.56683 9.05011 0.686829 8.75011C0.633496 8.73677 0.593496 8.74344 0.540163 8.73677C0.413496 8.21011 0.333496 7.67011 0.333496 7.10344C0.333496 6.54344 0.413496 5.99677 0.540163 5.47677C0.593496 5.47011 0.633496 5.47011 0.686829 5.45677C1.5735 5.16344 2.4735 4.94344 3.3935 4.77677C3.22683 6.32344 3.22683 7.88344 3.3935 9.43011ZM13.6668 7.10344C13.6668 7.67011 13.5868 8.21011 13.4602 8.73677C13.4068 8.74344 13.3668 8.73677 13.3135 8.75011C12.4268 9.04344 11.5202 9.26344 10.6068 9.43011C10.7802 7.88344 10.7802 6.32344 10.6068 4.77677C11.5202 4.94344 12.4335 5.15677 13.3135 5.45677C13.3668 5.47011 13.4068 5.47677 13.4602 5.47677C13.5868 6.00344 13.6668 6.54344 13.6668 7.10344ZM9.32816 10.7088C9.1615 11.6288 8.94816 12.5354 8.64816 13.4154C8.63483 13.4688 8.63483 13.5088 8.62816 13.5621C8.10816 13.6888 7.5615 13.7688 7.0015 13.7688C6.43483 13.7688 5.89483 13.6888 5.36816 13.5621C5.3615 13.5088 5.36816 13.4688 5.35483 13.4154C5.06493 12.5303 4.8377 11.6258 4.67483 10.7088C5.44816 10.7954 6.2215 10.8554 7.0015 10.8554C7.7815 10.8554 8.5615 10.7954 9.32816 10.7088ZM9.50883 9.61077C7.843 9.82114 6.15733 9.82114 4.4915 9.61077C4.28116 7.94494 4.28116 6.25927 4.4915 4.59344C6.15733 4.3831 7.843 4.3831 9.50883 4.59344C9.71919 6.25927 9.71919 7.94494 9.50883 9.61077Z" fill="#AEB8D6"/>
</svg>
